<svg viewBox="0 0 227 340" fill="none" xmlns="http://www.w3.org/2000/svg"><g clip-path="url(#clip0_56_699)"><path d="M187.328 110.53c0 41.114-33.249 74.397-74.204 74.397-40.956 0-74.205-33.283-74.205-74.397 0-41.115 33.249-74.398 74.205-74.398 40.955 0 74.204 33.283 74.204 74.398z" stroke="#0A2640" stroke-width="24.971"/><mask id="a" style="mask-type:alpha" maskUnits="userSpaceOnUse" x="-26" y="-8" width="137" height="226"><path d="M110.357 102.519L76.542-7.78-25.826 122.237l54.412 94.894 81.771-114.612z" fill="#C4C4C4"/></mask><g mask="url(#a)"><path d="M187.328 110.529c0 41.115-33.248 74.398-74.204 74.398-40.956 0-74.204-33.283-74.204-74.398 0-41.115 33.248-74.397 74.204-74.397 40.956 0 74.204 33.282 74.204 74.397z" stroke="#0DBBFC" stroke-width="24.971"/></g><mask id="b" style="mask-type:alpha" maskUnits="userSpaceOnUse" x="65" y="-17" width="169" height="157"><path d="M121.803 112.184l111.865 27.391-59.116-154.678-109.19-1.778 56.441 129.065z" fill="#C4C4C4"/></mask><g mask="url(#b)"><path d="M75.088 174.371C39.863 153.33 28.303 107.674 49.27 72.396c20.97-35.279 66.524-46.817 101.749-25.775 35.224 21.042 46.785 66.697 25.816 101.976-20.969 35.278-66.524 46.816-101.748 25.774z" stroke="#69E6A6" stroke-width="24.971"/></g></g><g clip-path="url(#clip1_56_699)"><path d="M40.369 237.251c-.495 0-.95-.088-1.367-.264a3.089 3.089 0 01-1.076-.749c-.3-.329-.52-.72-.659-1.173l.972-.291c.166.495.44.869.818 1.124.384.254.817.377 1.298.367.444-.009.826-.108 1.145-.298.324-.19.571-.453.742-.791a2.56 2.56 0 00.257-1.173c0-.68-.199-1.225-.597-1.637-.393-.416-.913-.625-1.56-.625-.181 0-.371.026-.57.077a2.383 2.383 0 00-.555.201l-.514-.812 3.886-3.587.167.416h-5.093v-.978h5.773v.992l-3.386 3.233-.014-.402c.694-.088 1.304-.009 1.832.236.527.245.939.62 1.235 1.124.3.5.45 1.087.45 1.762 0 .639-.138 1.203-.416 1.693-.273.486-.65.868-1.13 1.145a3.26 3.26 0 01-1.638.41zm7.934.007a3.262 3.262 0 01-2.56-1.201 3.43 3.43 0 01-.666-1.29l.978-.264c.088.361.247.673.479.937.231.259.502.46.812.603.314.144.643.216.985.216.444 0 .842-.107 1.193-.32a2.43 2.43 0 00.847-.86c.208-.356.312-.747.312-1.173 0-.439-.109-.835-.326-1.186a2.433 2.433 0 00-.86-.847 2.27 2.27 0 00-1.166-.312c-.472 0-.88.104-1.221.312a2.485 2.485 0 00-.82.77l-.929-.388.305-5.197h5.336v.978h-4.885l.507-.479-.27 4.434-.257-.34a3.03 3.03 0 011.04-.77 3.068 3.068 0 011.284-.278c.615 0 1.17.148 1.665.445a3.258 3.258 0 011.617 2.858c0 .611-.155 1.171-.465 1.679-.31.505-.721.909-1.235 1.215a3.267 3.267 0 01-1.7.458zm6.032-.208l-.694-.694 9.319-9.298.694.687-9.319 9.305zm7.237.208a2.44 2.44 0 01-1.256-.333 2.64 2.64 0 01-.902-.902 2.42 2.42 0 01-.34-1.263c0-.454.116-.87.347-1.249a2.64 2.64 0 01.916-.909c.38-.227.791-.34 1.235-.34a2.4 2.4 0 011.256.34c.38.222.68.523.902.902.227.375.34.793.34 1.256 0 .462-.113.883-.34 1.263a2.562 2.562 0 01-.902.902 2.44 2.44 0 01-1.256.333zm0-.923c.282 0 .544-.072.784-.215a1.66 1.66 0 00.576-.569 1.52 1.52 0 00.215-.791 1.48 1.48 0 00-.215-.784 1.629 1.629 0 00-.576-.576 1.498 1.498 0 00-.784-.215c-.287 0-.55.071-.79.215a1.707 1.707 0 00-.577.576 1.48 1.48 0 00-.215.784c0 .287.072.55.215.791.148.236.34.425.576.569.24.143.504.215.791.215zm-5.85-4.49a2.44 2.44 0 01-1.255-.333 2.603 2.603 0 01-.91-.902 2.452 2.452 0 01-.332-1.262c0-.454.115-.87.347-1.249a2.64 2.64 0 01.916-.909c.379-.227.79-.34 1.235-.34.458 0 .874.113 1.249.34.379.222.682.522.909.902.226.374.34.793.34 1.256 0 .462-.114.883-.34 1.262-.227.375-.53.676-.91.902a2.404 2.404 0 01-1.248.333zm0-.922c.288 0 .549-.072.785-.215.24-.144.432-.334.576-.569a1.52 1.52 0 00.215-.791c0-.287-.072-.549-.215-.785a1.634 1.634 0 00-.576-.575 1.476 1.476 0 00-.784-.216c-.287 0-.55.072-.791.216a1.653 1.653 0 00-.57.575 1.483 1.483 0 00-.214.785c0 .286.071.55.215.791.143.235.333.425.569.569.24.143.504.215.79.215zm12.79 2.192v-.874h4.163v.874h-4.163zm10.829 3.935l3.441-9.992h1.353l3.442 9.992h-1.062l-3.268-9.423h.403l-3.248 9.423h-1.061zm1.533-2.422v-.958h5.163v.958h-5.163zm10.933 5.96c-.384 0-.764-.057-1.138-.173a3.118 3.118 0 01-1.027-.534 2.963 2.963 0 01-.791-.944l.923-.514c.208.417.5.715.874.896.38.185.765.277 1.159.277.54 0 .978-.102 1.311-.305.338-.199.583-.495.736-.888.152-.394.226-.884.222-1.471v-1.999h.118v-5.377h.909v7.389c0 .213-.007.417-.021.611-.01.199-.03.393-.063.583-.088.56-.27 1.02-.548 1.381a2.44 2.44 0 01-1.082.805c-.444.175-.972.263-1.582.263zm-.07-3.33c-.698 0-1.295-.174-1.79-.521a3.369 3.369 0 01-1.138-1.422c-.264-.597-.395-1.27-.395-2.019 0-.745.13-1.416.388-2.013a3.35 3.35 0 011.131-1.415c.49-.347 1.078-.52 1.763-.52.703 0 1.295.171 1.776.513.481.342.844.812 1.09 1.409.25.592.374 1.267.374 2.026 0 .744-.123 1.418-.368 2.019-.245.597-.606 1.071-1.082 1.422-.477.347-1.06.521-1.749.521zm.104-.951c.532 0 .972-.129 1.319-.388.347-.26.606-.616.777-1.069a4.42 4.42 0 00.257-1.554c0-.588-.086-1.106-.257-1.555-.171-.453-.43-.807-.777-1.061-.343-.255-.775-.382-1.298-.382-.536 0-.98.132-1.332.396a2.337 2.337 0 00-.784 1.075 4.39 4.39 0 00-.25 1.527c0 .569.086 1.082.257 1.54.175.453.437.812.784 1.076.347.263.782.395 1.304.395zm5.34-8.174v-1.145h1.02v1.145h-1.02zm0 8.917v-7.494h1.02v7.494h-1.02zm3.239 0v-10.2h1.02v10.2h-1.02zm6.272.208c-.731 0-1.365-.162-1.902-.486a3.294 3.294 0 01-1.242-1.367c-.296-.587-.444-1.277-.444-2.068 0-.818.146-1.526.437-2.123a3.25 3.25 0 011.229-1.381c.532-.324 1.158-.485 1.88-.485.74 0 1.372.171 1.894.513.523.338.918.823 1.187 1.457.268.634.391 1.39.368 2.269h-1.041v-.361c-.019-.971-.229-1.704-.632-2.199-.398-.495-.98-.743-1.748-.743-.805 0-1.423.262-1.853.784-.426.523-.638 1.268-.638 2.235 0 .943.212 1.676.638 2.199.43.518 1.039.777 1.825.777.537 0 1.004-.122 1.402-.367.402-.25.719-.609.95-1.076l.951.368a3.39 3.39 0 01-1.312 1.519c-.573.357-1.223.535-1.949.535zm-2.866-3.671v-.853h5.724v.853h-5.724zm10.591 3.463v-9.992h3.032c.106 0 .287.002.541.007.259.004.507.023.743.055.758.107 1.392.389 1.901.847.509.458.89 1.041 1.145 1.748.254.708.381 1.487.381 2.339 0 .851-.127 1.63-.381 2.338-.255.708-.636 1.291-1.145 1.749-.509.458-1.143.74-1.901.846a9.087 9.087 0 01-.743.056c-.264.004-.444.007-.541.007h-3.032zm1.054-.979h1.978c.19 0 .393-.004.61-.014.223-.014.412-.037.569-.069.583-.102 1.053-.338 1.409-.708a3.3 3.3 0 00.791-1.388c.167-.559.25-1.172.25-1.838 0-.671-.083-1.286-.25-1.846-.166-.56-.43-1.022-.791-1.388-.361-.365-.83-.599-1.409-.701a3.662 3.662 0 00-.575-.062 9.716 9.716 0 00-.604-.021h-1.978v8.035zm11.441 1.187c-.731 0-1.365-.162-1.902-.486a3.294 3.294 0 01-1.242-1.367c-.296-.587-.444-1.277-.444-2.068 0-.818.146-1.526.437-2.123a3.25 3.25 0 011.229-1.381c.532-.324 1.158-.485 1.88-.485.74 0 1.372.171 1.894.513.523.338.919.823 1.187 1.457.268.634.391 1.39.368 2.269h-1.041v-.361c-.019-.971-.229-1.704-.632-2.199-.398-.495-.98-.743-1.748-.743-.805 0-1.423.262-1.853.784-.425.523-.638 1.268-.638 2.235 0 .943.213 1.676.638 2.199.43.518 1.039.777 1.825.777.537 0 1.004-.122 1.402-.367.402-.25.719-.609.95-1.076l.951.368a3.39 3.39 0 01-1.312 1.519c-.573.357-1.223.535-1.949.535zm-2.866-3.671v-.853h5.724v.853h-5.724zm9.568 3.463l-2.72-7.494h1.033l2.214 6.161 2.199-6.161h1.048l-2.72 7.494h-1.054zm7.921.208c-.731 0-1.365-.162-1.902-.486a3.294 3.294 0 01-1.242-1.367c-.296-.587-.444-1.277-.444-2.068 0-.818.146-1.526.437-2.123a3.25 3.25 0 011.229-1.381c.531-.324 1.158-.485 1.88-.485.74 0 1.371.171 1.894.513.523.338.918.823 1.187 1.457.268.634.391 1.39.367 2.269h-1.04v-.361c-.019-.971-.229-1.704-.632-2.199-.398-.495-.98-.743-1.748-.743-.805 0-1.423.262-1.853.784-.426.523-.638 1.268-.638 2.235 0 .943.212 1.676.638 2.199.43.518 1.039.777 1.825.777.537 0 1.004-.122 1.402-.367.402-.25.719-.609.95-1.076l.951.368a3.39 3.39 0 01-1.312 1.519c-.573.357-1.223.535-1.949.535zm-2.866-3.671v-.853h5.724v.853h-5.724zm7.951 3.463v-10.2h1.02v10.2h-1.02zm6.23.208c-.745 0-1.381-.169-1.908-.507a3.29 3.29 0 01-1.215-1.401c-.282-.597-.423-1.282-.423-2.054 0-.787.143-1.476.43-2.068a3.265 3.265 0 011.221-1.381c.532-.333 1.164-.499 1.895-.499.749 0 1.387.168 1.915.506.532.333.937.798 1.214 1.395.282.592.423 1.274.423 2.047 0 .786-.141 1.478-.423 2.074a3.242 3.242 0 01-1.221 1.388c-.532.333-1.168.5-1.908.5zm0-.979c.832 0 1.452-.275 1.859-.825.407-.555.611-1.275.611-2.158 0-.907-.206-1.629-.618-2.165-.407-.537-1.024-.805-1.852-.805-.56 0-1.023.127-1.388.382-.361.249-.631.599-.812 1.047-.176.444-.264.958-.264 1.541 0 .902.209 1.626.625 2.172.416.541 1.029.811 1.839.811zm8.448.979c-.689 0-1.272-.174-1.748-.521-.477-.351-.838-.825-1.083-1.422-.245-.601-.367-1.275-.367-2.019 0-.759.122-1.434.367-2.026.25-.597.616-1.067 1.097-1.409.481-.342 1.073-.513 1.776-.513.685 0 1.272.173 1.762.52.491.347.865.819 1.125 1.415.263.597.395 1.268.395 2.013 0 .749-.132 1.422-.395 2.019a3.371 3.371 0 01-1.138 1.422c-.495.347-1.092.521-1.791.521zm-3.372 3.122v-10.824h.916v5.641h.111v5.183h-1.027zm3.268-4.073c.523 0 .958-.132 1.305-.395.347-.264.606-.623.777-1.076.176-.458.264-.971.264-1.54 0-.565-.086-1.074-.257-1.527a2.34 2.34 0 00-.784-1.075c-.347-.264-.789-.396-1.326-.396-.522 0-.957.127-1.304.382-.342.254-.599.608-.77 1.061-.171.449-.257.967-.257 1.555 0 .578.086 1.096.257 1.554.171.453.43.809.777 1.069.347.259.786.388 1.318.388zm13.889.743l.007-4.92c0-.578-.162-1.032-.486-1.36-.319-.333-.726-.5-1.221-.5-.282 0-.558.065-.826.195a1.59 1.59 0 00-.666.624c-.171.287-.257.662-.257 1.124l-.603-.173c-.014-.537.09-1.006.312-1.409.227-.402.536-.715.93-.937.397-.226.846-.34 1.346-.34.754 0 1.357.234 1.811.701.453.463.68 1.09.68 1.881l-.007 5.114h-1.02zm-8.944 0v-7.494h.916v1.845h.111v5.649h-1.027zm4.482 0l.007-4.851c0-.596-.159-1.066-.479-1.408-.314-.347-.73-.521-1.249-.521-.518 0-.936.178-1.255.535-.32.351-.479.821-.479 1.408l-.611-.333c0-.481.113-.911.34-1.29a2.42 2.42 0 01.93-.902c.393-.223.84-.334 1.339-.334.477 0 .9.102 1.27.306.375.203.668.499.881.888.213.388.319.86.319 1.415l-.007 5.087h-1.006zm10.405.208c-.731 0-1.365-.162-1.901-.486a3.294 3.294 0 01-1.242-1.367c-.296-.587-.444-1.277-.444-2.068 0-.818.145-1.526.437-2.123a3.248 3.248 0 011.228-1.381c.532-.324 1.159-.485 1.88-.485.74 0 1.372.171 1.895.513.522.338.918.823 1.186 1.457.268.634.391 1.39.368 2.269h-1.041v-.361c-.018-.971-.229-1.704-.631-2.199-.398-.495-.981-.743-1.749-.743-.805 0-1.422.262-1.853.784-.425.523-.638 1.268-.638 2.235 0 .943.213 1.676.638 2.199.431.518 1.039.777 1.825.777.537 0 1.004-.122 1.402-.367.402-.25.719-.609.951-1.076l.95.368a3.395 3.395 0 01-1.311 1.519c-.574.357-1.224.535-1.95.535zm-2.866-3.671v-.853h5.725v.853h-5.725zm13.022 3.463v-3.824c0-.416-.04-.798-.118-1.145a2.656 2.656 0 00-.382-.916 1.74 1.74 0 00-.673-.61c-.273-.144-.606-.215-.999-.215-.361 0-.68.062-.958.187a1.889 1.889 0 00-.694.541 2.432 2.432 0 00-.423.847 4.07 4.07 0 00-.146 1.138l-.721-.16c0-.768.134-1.413.402-1.936a2.799 2.799 0 011.11-1.186c.472-.269 1.014-.403 1.624-.403.449 0 .84.07 1.173.208.337.139.622.327.853.563.236.235.426.506.569.811.144.301.248.623.312.965.065.338.098.675.098 1.013v4.122h-1.027zm-5.419 0v-7.494h.922v1.845h.104v5.649h-1.026zm12.326 0a5.059 5.059 0 01-1.249.104 2.784 2.784 0 01-1.096-.264 1.582 1.582 0 01-.729-.736 2.162 2.162 0 01-.222-.839 31.435 31.435 0 01-.014-.979v-6.862h1.014v6.821c0 .314.002.578.006.791.01.208.058.393.146.555.167.31.43.495.791.555.366.06.817.046 1.353-.042v.896zm-4.912-6.62v-.874h4.912v.874h-4.912z" fill="#000"/><ellipse cx="26.275" cy="232.945" rx="2.485" ry="2.478" fill="#0DBBFC"/><path d="M40.369 272.936c-.495 0-.95-.088-1.367-.264a3.075 3.075 0 01-1.076-.749c-.3-.328-.52-.719-.659-1.173l.972-.291c.166.495.44.87.818 1.124.384.254.817.377 1.298.368.444-.009.826-.109 1.145-.299a1.88 1.88 0 00.742-.791c.172-.337.257-.728.257-1.172 0-.68-.199-1.226-.597-1.638-.393-.416-.913-.624-1.56-.624-.181 0-.371.025-.57.076a2.383 2.383 0 00-.555.201l-.514-.812 3.886-3.587.167.416h-5.093v-.978h5.773v.992l-3.386 3.234-.014-.403c.694-.088 1.304-.009 1.832.236.527.245.939.62 1.235 1.124.3.5.45 1.087.45 1.763 0 .638-.138 1.202-.416 1.693-.273.486-.65.867-1.13 1.145-.482.273-1.028.409-1.638.409zm8.246.007c-.615 0-1.17-.143-1.665-.43a3.206 3.206 0 01-1.166-1.166 3.26 3.26 0 01-.43-1.665v-3.886a3.222 3.222 0 011.596-2.831 3.259 3.259 0 011.665-.43c.616 0 1.168.143 1.659.43a3.22 3.22 0 011.602 2.831v3.886a3.26 3.26 0 01-.43 1.665 3.221 3.221 0 01-2.831 1.596zm0-.985c.412 0 .787-.1 1.124-.299a2.29 2.29 0 00.805-.811c.2-.338.299-.711.299-1.118v-3.982c0-.412-.1-.787-.299-1.125a2.233 2.233 0 00-.805-.804 2.132 2.132 0 00-1.124-.306c-.411 0-.786.102-1.124.306a2.233 2.233 0 00-.805.804 2.177 2.177 0 00-.298 1.125v3.982c0 .407.1.78.298 1.118.2.337.468.608.805.811.338.199.713.299 1.124.299zm6.18.777l-.693-.694 9.319-9.298.694.687-9.32 9.305zm7.238.208a2.44 2.44 0 01-1.256-.333 2.631 2.631 0 01-.902-.902 2.41 2.41 0 01-.34-1.263c0-.453.116-.87.347-1.249.231-.379.537-.682.916-.909.38-.227.79-.34 1.235-.34a2.4 2.4 0 011.256.34c.38.222.68.523.902.902.227.375.34.793.34 1.256 0 .463-.114.884-.34 1.263a2.553 2.553 0 01-.902.902c-.38.222-.798.333-1.256.333zm0-.923c.282 0 .543-.072.784-.215a1.65 1.65 0 00.576-.569c.143-.24.215-.504.215-.791a1.48 1.48 0 00-.215-.784 1.629 1.629 0 00-.576-.576 1.508 1.508 0 00-.784-.215c-.287 0-.55.072-.791.215a1.707 1.707 0 00-.576.576 1.48 1.48 0 00-.215.784c0 .287.072.551.215.791.148.236.34.426.576.569.24.143.504.215.79.215zm-5.85-4.489a2.44 2.44 0 01-1.255-.333 2.62 2.62 0 01-.91-.902 2.458 2.458 0 01-.333-1.263c0-.454.116-.87.347-1.249.232-.379.537-.682.916-.909.38-.227.791-.34 1.236-.34.458 0 .874.113 1.248.34.38.222.683.523.91.902.226.375.34.793.34 1.256 0 .462-.114.883-.34 1.263a2.62 2.62 0 01-.91.902 2.404 2.404 0 01-1.248.333zm0-.923c.287 0 .549-.072.785-.215a1.66 1.66 0 00.575-.569c.144-.241.216-.504.216-.791a1.48 1.48 0 00-.215-.784 1.629 1.629 0 00-.576-.576 1.475 1.475 0 00-.785-.215c-.286 0-.55.071-.79.215a1.648 1.648 0 00-.57.576 1.48 1.48 0 00-.215.784c0 .287.072.55.216.791.143.236.333.425.569.569.24.143.504.215.79.215zm12.79 2.193v-.875h4.163v.875h-4.163zm11.661 3.934v-9.992h1.02v9.992h-1.02zm8.513 0v-3.823c0-.417-.04-.798-.119-1.145a2.636 2.636 0 00-.381-.916 1.748 1.748 0 00-.673-.611c-.273-.143-.606-.215-1-.215-.36 0-.68.063-.957.187a1.89 1.89 0 00-.694.542 2.422 2.422 0 00-.423.846 4.072 4.072 0 00-.146 1.138l-.721-.159c0-.768.134-1.414.402-1.936a2.787 2.787 0 011.11-1.187c.472-.268 1.013-.402 1.624-.402.449 0 .84.069 1.173.208.337.139.622.326.853.562.236.236.426.506.569.812.143.3.248.622.312.964.065.338.097.676.097 1.013v4.122h-1.026zm-5.42 0v-7.494h.923v1.846h.104v5.648h-1.027zm10.273 0l-2.72-7.494h1.034l2.214 6.162 2.2-6.162h1.047l-2.72 7.494H94zm7.921.208c-.731 0-1.364-.162-1.901-.486a3.289 3.289 0 01-1.242-1.367c-.296-.587-.444-1.276-.444-2.067 0-.819.146-1.527.437-2.124.291-.596.7-1.057 1.228-1.38.532-.324 1.159-.486 1.881-.486.74 0 1.371.171 1.894.513.523.338.918.824 1.186 1.457.269.634.391 1.391.368 2.269h-1.041v-.36c-.018-.972-.229-1.705-.631-2.2-.398-.495-.981-.742-1.749-.742-.805 0-1.422.261-1.852.784-.426.522-.639 1.267-.639 2.234 0 .944.213 1.677.639 2.2.43.518 1.038.777 1.825.777.536 0 1.003-.123 1.401-.368.403-.25.72-.608.951-1.076l.95.368a3.403 3.403 0 01-1.311 1.52c-.574.356-1.224.534-1.95.534zm-2.866-3.671v-.853h5.725v.853h-5.725zm10.609 3.664c-.879 0-1.603-.19-2.172-.569a2.37 2.37 0 01-1.04-1.582l1.04-.173c.111.425.364.765.757 1.02.398.249.888.374 1.471.374.569 0 1.018-.118 1.346-.354a1.15 1.15 0 00.493-.978c0-.231-.054-.419-.16-.562-.102-.148-.312-.284-.631-.409-.32-.125-.796-.273-1.43-.444-.68-.185-1.212-.371-1.596-.556-.384-.185-.657-.397-.819-.638-.161-.245-.242-.543-.242-.895 0-.426.12-.798.36-1.117.241-.324.574-.574 1-.75.425-.18.92-.27 1.485-.27.564 0 1.068.092 1.512.277.449.181.81.435 1.083.764.273.328.434.71.485 1.145l-1.04.187c-.07-.44-.29-.787-.66-1.041-.365-.259-.83-.393-1.394-.402-.532-.014-.965.088-1.298.305-.333.213-.499.497-.499.853 0 .199.06.37.18.514.12.139.338.27.652.395.319.125.773.262 1.36.41.689.176 1.231.361 1.624.555.393.194.673.423.839.687.167.263.25.59.25.978 0 .708-.263 1.265-.791 1.672-.523.403-1.244.604-2.165.604zm8.575-.201a5.011 5.011 0 01-1.249.104 2.767 2.767 0 01-1.096-.264 1.584 1.584 0 01-.729-.735 2.17 2.17 0 01-.222-.84 31.415 31.415 0 01-.014-.978v-6.863h1.013v6.821c0 .315.003.578.007.791.01.208.058.393.146.555.167.31.43.495.791.555.366.061.817.047 1.353-.041v.895zm-4.913-6.62v-.874h4.913v.874h-4.913zm9.248 6.828c-.745 0-1.381-.169-1.908-.507a3.291 3.291 0 01-1.215-1.401c-.282-.597-.423-1.281-.423-2.054 0-.786.144-1.476.43-2.068a3.26 3.26 0 011.222-1.381c.532-.333 1.163-.499 1.894-.499.749 0 1.388.169 1.915.506.532.333.937.798 1.214 1.395.282.592.424 1.274.424 2.047 0 .786-.142 1.478-.424 2.075a3.24 3.24 0 01-1.221 1.387c-.532.333-1.168.5-1.908.5zm0-.978c.833 0 1.452-.276 1.859-.826.408-.555.611-1.274.611-2.158 0-.907-.206-1.628-.617-2.165-.408-.537-1.025-.805-1.853-.805-.56 0-1.022.127-1.388.382-.361.25-.631.599-.812 1.048-.175.444-.263.957-.263 1.54 0 .902.208 1.626.624 2.172.416.541 1.029.812 1.839.812zm5.083.77v-7.494h.916v1.804l-.18-.236c.083-.222.192-.425.326-.61.134-.19.28-.345.437-.465.194-.172.421-.301.68-.389a2.77 2.77 0 01.784-.16c.264-.018.504 0 .722.056v.958a2.461 2.461 0 00-.895-.049 1.7 1.7 0 00-.896.389 1.865 1.865 0 00-.562.7 2.991 2.991 0 00-.249.861c-.042.3-.063.599-.063.895v3.74h-1.02zm11.145.208c-.69 0-1.273-.173-1.749-.52-.477-.352-.837-.826-1.082-1.423-.246-.601-.368-1.274-.368-2.019 0-.759.122-1.434.368-2.026.249-.597.615-1.066 1.096-1.409.481-.342 1.073-.513 1.776-.513.685 0 1.272.173 1.763.52a3.3 3.3 0 011.124 1.416c.263.596.395 1.267.395 2.012 0 .749-.132 1.422-.395 2.019a3.38 3.38 0 01-1.138 1.423c-.495.347-1.092.52-1.79.52zm-3.373-.208v-9.992h1.027v4.351h-.111v5.641h-.916zm3.268-.743c.523 0 .958-.131 1.305-.395s.606-.622.777-1.076c.176-.458.264-.971.264-1.54 0-.564-.086-1.073-.257-1.527a2.337 2.337 0 00-.784-1.075c-.347-.264-.789-.396-1.325-.396-.523 0-.958.128-1.305.382-.342.254-.599.608-.77 1.062-.171.448-.257.967-.257 1.554 0 .578.086 1.096.257 1.554.171.454.43.81.777 1.069.347.259.786.388 1.318.388zm7.096.951c-.564 0-1.039-.102-1.422-.305a2.071 2.071 0 01-.854-.812 2.213 2.213 0 01-.284-1.103c0-.407.081-.754.242-1.041.167-.292.391-.53.674-.715.286-.185.617-.326.992-.423.379-.093.798-.174 1.256-.243a31.45 31.45 0 011.353-.187c.444-.056.832-.109 1.165-.16l-.36.222c.014-.74-.13-1.288-.431-1.644-.3-.357-.823-.535-1.568-.535-.513 0-.948.116-1.304.347-.352.232-.599.597-.743 1.097l-.992-.292c.171-.671.516-1.191 1.034-1.561.518-.37 1.191-.555 2.019-.555.685 0 1.265.129 1.742.388.481.255.821.625 1.02 1.111.092.217.152.46.18.728.028.268.042.541.042.819v4.656h-.909v-1.881l.264.111c-.255.643-.65 1.134-1.187 1.471-.537.338-1.18.507-1.929.507zm.118-.881c.476 0 .893-.086 1.249-.257.356-.171.643-.405.86-.701.218-.3.359-.638.424-1.013.055-.24.085-.504.09-.791.004-.291.007-.509.007-.652l.388.201c-.347.046-.724.093-1.131.139-.402.046-.8.099-1.193.16-.389.06-.74.131-1.055.215-.213.06-.418.145-.617.256-.199.107-.364.25-.493.431-.125.18-.187.404-.187.673 0 .217.053.428.159.631.111.204.287.372.528.507.245.134.569.201.971.201zm10.861.673v-3.823c0-.417-.039-.798-.118-1.145a2.62 2.62 0 00-.381-.916 1.75 1.75 0 00-.673-.611c-.273-.143-.606-.215-.999-.215-.361 0-.68.063-.958.187a1.891 1.891 0 00-.694.542 2.418 2.418 0 00-.423.846 4.075 4.075 0 00-.146 1.138l-.721-.159c0-.768.134-1.414.402-1.936a2.783 2.783 0 011.11-1.187c.472-.268 1.013-.402 1.624-.402.449 0 .839.069 1.173.208.337.139.622.326.853.562.236.236.426.506.569.812.143.3.247.622.312.964.065.338.097.676.097 1.013v4.122h-1.027zm-5.419 0v-7.494h.923v1.846h.104v5.648h-1.027zm11.1.208c-.698 0-1.295-.173-1.79-.52a3.38 3.38 0 01-1.138-1.423c-.264-.597-.396-1.27-.396-2.019 0-.745.13-1.416.389-2.012.264-.597.641-1.069 1.131-1.416s1.078-.52 1.762-.52c.704 0 1.296.171 1.777.513.481.343.844.812 1.089 1.409.25.592.375 1.267.375 2.026 0 .745-.123 1.418-.368 2.019-.245.597-.606 1.071-1.082 1.423-.477.347-1.06.52-1.749.52zm.104-.951c.532 0 .972-.129 1.319-.388.346-.259.606-.615.777-1.069a4.42 4.42 0 00.256-1.554c0-.587-.085-1.106-.256-1.554-.171-.454-.431-.808-.777-1.062-.343-.254-.775-.382-1.298-.382-.537 0-.981.132-1.332.396a2.337 2.337 0 00-.784 1.075c-.167.454-.25.963-.25 1.527 0 .569.085 1.082.257 1.54a2.4 2.4 0 00.784 1.076c.347.264.781.395 1.304.395zm2.352.743v-5.641h-.111v-4.351h1.027v9.992h-.916zm4.459 0l-2.29-7.501 1.02.007 1.776 5.822 1.784-5.822h.93l1.783 5.822 1.79-5.822h1.013l-2.29 7.494h-.888l-1.873-5.967-1.867 5.967h-.888zm9.195-8.916v-1.145h1.02v1.145h-1.02zm0 8.916v-7.494h1.02v7.494h-1.02zm6.007.208c-.698 0-1.295-.173-1.79-.52a3.38 3.38 0 01-1.138-1.423c-.263-.597-.395-1.27-.395-2.019 0-.745.129-1.416.388-2.012.264-.597.641-1.069 1.131-1.416.491-.347 1.078-.52 1.763-.52.703 0 1.295.171 1.776.513.481.343.844.812 1.09 1.409.249.592.374 1.267.374 2.026 0 .745-.122 1.418-.368 2.019-.245.597-.606 1.071-1.082 1.423-.476.347-1.059.52-1.749.52zm.105-.951c.532 0 .971-.129 1.318-.388.347-.259.606-.615.777-1.069a4.42 4.42 0 00.257-1.554c0-.587-.086-1.106-.257-1.554-.171-.454-.43-.808-.777-1.062-.342-.254-.775-.382-1.298-.382-.536 0-.98.132-1.332.396a2.345 2.345 0 00-.784 1.075c-.167.454-.25.963-.25 1.527 0 .569.086 1.082.257 1.54.176.454.437.812.784 1.076.347.264.782.395 1.305.395zm2.352.743v-5.641h-.111v-4.351h1.027v9.992h-.916zm6.942 0a5.011 5.011 0 01-1.249.104 2.767 2.767 0 01-1.096-.264 1.584 1.584 0 01-.729-.735 2.17 2.17 0 01-.222-.84 31.663 31.663 0 01-.013-.978v-6.863h1.013v6.821c0 .315.002.578.007.791.009.208.057.393.145.555.167.31.43.495.791.555.366.061.817.047 1.353-.041v.895zm-4.912-6.62v-.874h4.912v.874h-4.912zm11.801 6.62v-3.823c0-.417-.039-.798-.118-1.145a2.64 2.64 0 00-.382-.916 1.743 1.743 0 00-.673-.611c-.273-.143-.606-.215-.999-.215-.361 0-.68.063-.957.187a1.883 1.883 0 00-.694.542 2.418 2.418 0 00-.423.846 4.039 4.039 0 00-.146 1.138l-.722-.159c0-.768.134-1.414.403-1.936a2.783 2.783 0 011.11-1.187c.472-.268 1.013-.402 1.623-.402.449 0 .84.069 1.173.208.338.139.622.326.854.562.236.236.425.506.569.812.143.3.247.622.312.964.065.338.097.676.097 1.013v4.122h-1.027zm-5.419 0v-9.992h.923v5.641h.104v4.351h-1.027z" fill="#000"/><ellipse cx="26.275" cy="268.63" rx="2.485" ry="2.478" fill="#69E6A6"/><path d="M40.369 308.621c-.495 0-.95-.088-1.367-.264a3.089 3.089 0 01-1.076-.749 3.02 3.02 0 01-.659-1.173l.972-.291c.166.495.44.869.818 1.124.384.254.817.377 1.298.368.444-.01.826-.109 1.145-.299a1.88 1.88 0 00.742-.791c.172-.337.257-.728.257-1.172 0-.68-.199-1.226-.597-1.638-.393-.416-.913-.624-1.56-.624-.181 0-.371.025-.57.076a2.383 2.383 0 00-.555.201l-.514-.812 3.886-3.587.167.416h-5.093v-.978h5.773v.992l-3.386 3.234-.014-.403c.694-.088 1.304-.009 1.832.236.527.245.939.62 1.235 1.124.3.5.45 1.087.45 1.763 0 .638-.138 1.202-.416 1.693-.273.485-.65.867-1.13 1.145a3.27 3.27 0 01-1.638.409zm7.934.007a3.262 3.262 0 01-2.56-1.201 3.423 3.423 0 01-.666-1.29l.978-.264c.088.361.247.673.479.937.231.259.502.46.812.604.314.143.643.215.985.215.444 0 .842-.107 1.193-.32a2.43 2.43 0 00.847-.86c.208-.356.312-.747.312-1.173 0-.439-.109-.835-.326-1.186a2.442 2.442 0 00-.86-.847 2.27 2.27 0 00-1.166-.312c-.472 0-.88.104-1.221.312a2.478 2.478 0 00-.82.771l-.929-.389.305-5.197h5.336v.978h-4.885l.507-.479-.27 4.434-.257-.34a3.03 3.03 0 011.04-.77 3.067 3.067 0 011.284-.277c.615 0 1.17.148 1.665.444a3.26 3.26 0 011.617 2.858c0 .611-.155 1.171-.465 1.68-.31.504-.721.909-1.235 1.214a3.267 3.267 0 01-1.7.458zm6.032-.208l-.694-.694 9.319-9.298.694.687-9.319 9.305zm7.237.208a2.44 2.44 0 01-1.256-.333 2.64 2.64 0 01-.902-.902 2.42 2.42 0 01-.34-1.263c0-.453.116-.87.347-1.249.231-.379.537-.682.916-.909.38-.227.791-.34 1.235-.34a2.4 2.4 0 011.256.34c.38.222.68.523.902.902.227.375.34.793.34 1.256 0 .462-.113.883-.34 1.263a2.562 2.562 0 01-.902.902 2.44 2.44 0 01-1.256.333zm0-.923c.282 0 .544-.072.784-.215a1.66 1.66 0 00.576-.569 1.52 1.52 0 00.215-.791 1.48 1.48 0 00-.215-.784 1.629 1.629 0 00-.576-.576 1.498 1.498 0 00-.784-.215c-.287 0-.55.071-.79.215a1.707 1.707 0 00-.577.576 1.48 1.48 0 00-.215.784c0 .287.072.55.215.791.148.236.34.425.576.569.24.143.504.215.791.215zm-5.85-4.489a2.44 2.44 0 01-1.255-.333 2.615 2.615 0 01-.91-.903 2.452 2.452 0 01-.332-1.262c0-.454.115-.87.347-1.249a2.64 2.64 0 01.916-.909c.379-.227.79-.34 1.235-.34.458 0 .874.113 1.249.34.379.222.682.522.909.902.226.374.34.793.34 1.256 0 .462-.114.883-.34 1.262-.227.375-.53.676-.91.903a2.404 2.404 0 01-1.248.333zm0-.923c.288 0 .549-.072.785-.215a1.66 1.66 0 00.576-.569 1.52 1.52 0 00.215-.791 1.48 1.48 0 00-.215-.784 1.629 1.629 0 00-.576-.576 1.475 1.475 0 00-.784-.215c-.287 0-.55.071-.791.215a1.648 1.648 0 00-.57.576 1.477 1.477 0 00-.214.784c0 .286.071.55.215.791.143.236.333.425.569.569.24.143.504.215.79.215zm12.79 2.192v-.874h4.163v.874h-4.163zm10.829 3.935l3.441-9.992h1.353l3.442 9.992h-1.062l-3.268-9.423h.403l-3.248 9.423h-1.061zm1.533-2.422v-.958h5.163v.958h-5.163zm10.482-7.57l-2.665 9.992h1.048l2.664-9.992h-1.047zm2.854 9.992v-9.992h3.858c.56 0 1.048.115 1.464.347.416.231.74.543.972.937.231.388.347.818.347 1.29 0 .537-.144 1.016-.431 1.436-.286.417-.67.706-1.151.868l-.014-.34c.647.185 1.156.509 1.526.971.37.463.555 1.023.555 1.679 0 .579-.122 1.078-.367 1.499-.246.417-.59.738-1.034.965-.444.226-.96.34-1.548.34H94.21zm1.027-.979h2.9a2.67 2.67 0 001.097-.215c.324-.148.578-.356.763-.624.19-.269.285-.592.285-.972a1.944 1.944 0 00-.958-1.707 1.862 1.862 0 00-1-.27h-3.087v3.788zm0-4.753h2.824c.32 0 .61-.071.874-.215a1.662 1.662 0 00.86-1.485c0-.472-.163-.856-.492-1.152-.324-.296-.738-.444-1.242-.444h-2.824v3.296zm14.342 5.732a5.011 5.011 0 01-1.249.104 2.784 2.784 0 01-1.096-.264 1.584 1.584 0 01-.729-.735 2.17 2.17 0 01-.222-.84 31.415 31.415 0 01-.014-.978v-6.863h1.013v6.821c0 .315.003.578.007.791.01.208.058.393.146.555.167.31.43.495.791.555.366.06.817.046 1.353-.041v.895zm-4.912-6.62v-.874h4.912v.874h-4.912zm9.289 6.828c-.731 0-1.365-.162-1.902-.486a3.294 3.294 0 01-1.242-1.367c-.296-.587-.444-1.277-.444-2.068 0-.818.146-1.526.437-2.123a3.25 3.25 0 011.229-1.381c.532-.323 1.158-.485 1.88-.485.74 0 1.372.171 1.894.513.523.338.919.824 1.187 1.457.268.634.391 1.39.368 2.269h-1.041v-.361c-.019-.971-.229-1.704-.632-2.199-.398-.495-.98-.743-1.748-.743-.805 0-1.423.262-1.853.784-.425.523-.638 1.268-.638 2.235 0 .943.213 1.677.638 2.199.43.518 1.039.777 1.825.777.537 0 1.004-.122 1.402-.367.402-.25.719-.609.95-1.076l.951.368a3.399 3.399 0 01-1.312 1.52c-.573.356-1.223.534-1.949.534zm-2.866-3.671v-.853h5.724v.853h-5.724zm10.609 3.664c-.879 0-1.603-.19-2.172-.569a2.374 2.374 0 01-1.041-1.582l1.041-.174c.111.426.363.766.756 1.02.398.25.888.375 1.471.375.569 0 1.018-.118 1.346-.354.329-.24.493-.566.493-.978 0-.231-.053-.419-.16-.562-.101-.148-.312-.285-.631-.41a15.388 15.388 0 00-1.429-.444c-.68-.185-1.212-.37-1.596-.555-.384-.185-.657-.398-.819-.638-.162-.245-.243-.544-.243-.895 0-.426.12-.798.361-1.117.24-.324.574-.574.999-.75.426-.18.921-.27 1.485-.27.564 0 1.069.092 1.513.277.448.181.809.435 1.082.763.273.329.435.711.486 1.145l-1.041.188a1.496 1.496 0 00-.659-1.041c-.366-.259-.831-.393-1.395-.403-.532-.013-.964.088-1.297.306-.334.213-.5.497-.5.853 0 .199.06.37.18.514.121.138.338.27.653.395.319.125.772.262 1.36.41.689.175 1.23.36 1.623.555.393.194.673.423.84.687.166.263.25.589.25.978 0 .708-.264 1.265-.791 1.672-.523.403-1.245.604-2.165.604zm8.575-.201a5.015 5.015 0 01-1.249.104 2.789 2.789 0 01-1.097-.264 1.577 1.577 0 01-.728-.735 2.17 2.17 0 01-.222-.84 28.59 28.59 0 01-.014-.978v-6.863h1.013v6.821c0 .315.002.578.007.791.009.208.058.393.145.555.167.31.431.495.792.555.365.06.816.046 1.353-.041v.895zm-4.913-6.62v-.874h4.913v.874h-4.913zm6.528-2.297v-1.145h1.02v1.145h-1.02zm0 8.917v-7.494h1.02v7.494h-1.02zm8.512 0v-3.824c0-.416-.039-.798-.118-1.144a2.639 2.639 0 00-.381-.916 1.743 1.743 0 00-.673-.611c-.273-.143-.606-.215-1-.215-.36 0-.68.062-.957.187a1.9 1.9 0 00-.694.541 2.432 2.432 0 00-.423.847 4.07 4.07 0 00-.146 1.138l-.722-.16c0-.768.135-1.413.403-1.936a2.787 2.787 0 011.11-1.186c.472-.268 1.013-.403 1.624-.403.448 0 .839.07 1.172.209.338.138.623.326.854.562.236.236.425.506.569.811.143.301.247.623.312.965.065.338.097.675.097 1.013v4.122h-1.027zm-5.419 0v-7.494h.923v1.846h.104v5.648h-1.027zm11.224 3.538c-.384 0-.764-.057-1.138-.173a3.113 3.113 0 01-1.027-.534 2.936 2.936 0 01-.791-.944l.922-.513c.209.416.5.714.875.895.379.185.765.277 1.159.277.541 0 .978-.102 1.311-.305.338-.199.583-.495.735-.888.153-.393.227-.884.223-1.471v-1.999h.117v-5.377h.909v7.39c0 .212-.006.416-.02.61-.01.199-.03.393-.063.583-.088.56-.27 1.02-.548 1.381a2.444 2.444 0 01-1.082.805c-.445.176-.972.263-1.582.263zm-.07-3.33c-.698 0-1.295-.174-1.79-.521a3.371 3.371 0 01-1.138-1.422c-.264-.597-.396-1.27-.396-2.019 0-.745.13-1.416.389-2.012.264-.597.641-1.069 1.131-1.416s1.078-.52 1.763-.52c.703 0 1.295.171 1.776.513.481.342.844.812 1.089 1.409.25.592.375 1.267.375 2.026 0 .745-.123 1.418-.368 2.019-.245.597-.606 1.071-1.082 1.422-.477.347-1.06.521-1.749.521zm.104-.951c.532 0 .972-.129 1.319-.388s.606-.616.777-1.069a4.42 4.42 0 00.256-1.554c0-.588-.085-1.106-.256-1.554-.171-.454-.43-.808-.777-1.062-.343-.255-.775-.382-1.298-.382-.537 0-.981.132-1.332.396a2.332 2.332 0 00-.784 1.075c-.167.454-.25.962-.25 1.527 0 .569.085 1.082.257 1.54a2.4 2.4 0 00.784 1.076c.347.263.782.395 1.304.395z" fill="#000"/><ellipse cx="26.275" cy="304.315" rx="2.485" ry="2.478" fill="#C4C4C4"/></g><defs><clipPath id="clip0_56_699"><path fill="#fff" transform="translate(26.268 23.79)" d="M0 0h173.469v173.469H0z"/></clipPath><clipPath id="clip1_56_699"><path fill="#fff" transform="translate(23.79 221.05)" d="M0 0h179.417v95.16H0z"/></clipPath></defs></svg>