<svg viewBox="0 0 171 308" fill="none" xmlns="http://www.w3.org/2000/svg"><g clip-path="url(#clip0_53_575)"><path fill="#0DBBFC" d="M1 227.21h11.333v-49.737H1zm22.667-20.912H35v-28.825H23.667zM46.333 44.085h11.333v133.387H46.333zM69 85.345h11.333v92.127H69z"/><path fill="#0A2640" d="M91.667 0H103v177.472H91.667z"/><path fill="#0DBBFC" d="M114.333 51.998h11.333v125.474h-11.333zM137 27.695h11.333v149.778H137zm22.667 81.388H171v68.389h-11.333z"/><path d="M6.624 273.324a6.04 6.04 0 01-2.448-.504 5.93 5.93 0 01-2.004-1.428 5.522 5.522 0 01-1.212-2.184l2.796-.756c.2.688.564 1.22 1.092 1.596a2.982 2.982 0 001.764.54c.568 0 1.076-.132 1.524-.396.448-.264.8-.62 1.056-1.068a3.06 3.06 0 00.384-1.524c0-.856-.276-1.572-.828-2.148-.552-.576-1.264-.864-2.136-.864-.264 0-.524.036-.78.108a3.517 3.517 0 00-.72.3l-1.32-2.28 5.808-4.968.252.696h-8.22v-2.724h10.596v2.736l-4.668 4.488-.024-.852c1.048.072 1.94.364 2.676.876a5.032 5.032 0 011.704 1.98c.4.808.6 1.692.6 2.652 0 1.088-.268 2.064-.804 2.928a5.78 5.78 0 01-2.136 2.052c-.888.496-1.872.744-2.952.744zm15.217.036c-1.224 0-2.304-.26-3.24-.78a5.68 5.68 0 01-2.196-2.196c-.52-.936-.78-2.016-.78-3.24v-5.568c0-1.224.26-2.304.78-3.24a5.597 5.597 0 012.196-2.184c.936-.528 2.016-.792 3.24-.792 1.224 0 2.3.264 3.228.792a5.597 5.597 0 012.196 2.184c.528.936.792 2.016.792 3.24v5.568c0 1.224-.264 2.304-.792 3.24a5.68 5.68 0 01-2.196 2.196c-.928.52-2.004.78-3.228.78zm0-2.748c.608 0 1.16-.144 1.656-.432a3.313 3.313 0 001.176-1.176 3.238 3.238 0 00.432-1.656v-5.988c0-.616-.144-1.168-.432-1.656a3.19 3.19 0 00-1.176-1.176 3.17 3.17 0 00-1.656-.444 3.17 3.17 0 00-1.656.444 3.19 3.19 0 00-1.176 1.176 3.196 3.196 0 00-.432 1.656v5.988c0 .608.144 1.16.432 1.656.288.488.68.88 1.176 1.176a3.238 3.238 0 001.656.432zM33.822 273l-1.92-1.92 15.372-15.36 1.92 1.932L33.822 273zm11.772.36a4.22 4.22 0 01-2.172-.576 4.55 4.55 0 01-1.56-1.56 4.177 4.177 0 01-.588-2.184c0-.784.2-1.504.6-2.16.4-.656.928-1.18 1.584-1.572a4.09 4.09 0 012.136-.588c.792 0 1.516.196 2.172.588a4.29 4.29 0 011.56 1.56c.392.648.588 1.372.588 2.172s-.196 1.528-.588 2.184a4.415 4.415 0 01-1.56 1.56 4.22 4.22 0 01-2.172.576zm0-2.472c.328 0 .632-.084.912-.252a1.9 1.9 0 00.684-.672c.168-.28.252-.588.252-.924 0-.336-.084-.644-.252-.924a1.9 1.9 0 00-.684-.672 1.74 1.74 0 00-.912-.252c-.336 0-.644.084-.924.252-.28.168-.508.392-.684.672-.168.28-.252.588-.252.924 0 .336.084.644.252.924.176.28.404.504.684.672.28.168.588.252.924.252zM35.502 264a4.22 4.22 0 01-2.172-.576 4.516 4.516 0 01-1.572-1.56 4.243 4.243 0 01-.576-2.184c0-.784.2-1.504.6-2.16.4-.656.928-1.18 1.584-1.572a4.09 4.09 0 012.136-.588c.792 0 1.512.196 2.16.588.656.384 1.18.904 1.572 1.56.392.648.588 1.372.588 2.172s-.196 1.528-.588 2.184a4.516 4.516 0 01-1.572 1.56 4.157 4.157 0 01-2.16.576zm0-2.472c.336 0 .644-.084.924-.252a1.93 1.93 0 00.672-.672c.168-.28.252-.588.252-.924 0-.336-.084-.644-.252-.924a1.93 1.93 0 00-.672-.672 1.762 1.762 0 00-.924-.252c-.336 0-.644.084-.924.252a1.93 1.93 0 00-.672.672c-.168.28-.252.588-.252.924 0 .336.084.644.252.924.168.28.392.504.672.672.28.168.588.252.924.252zM.98 302v-10.08h.945l3.962 8.477 3.941-8.477h.959v10.073h-.98v-7.777L6.216 302h-.665l-3.584-7.784V302H.98zm14.928.21c-.75 0-1.393-.17-1.925-.511a3.327 3.327 0 01-1.225-1.414c-.284-.602-.426-1.293-.426-2.072 0-.793.144-1.489.433-2.086a3.29 3.29 0 011.232-1.393c.537-.336 1.174-.504 1.912-.504.755 0 1.4.17 1.931.511.537.336.945.805 1.226 1.407.284.597.427 1.286.427 2.065 0 .793-.143 1.491-.427 2.093a3.273 3.273 0 01-1.232 1.4c-.537.336-1.179.504-1.925.504zm0-.987c.84 0 1.466-.278 1.877-.833.41-.56.616-1.286.616-2.177 0-.915-.208-1.643-.623-2.184-.411-.541-1.034-.812-1.87-.812-.564 0-1.03.128-1.4.385a2.281 2.281 0 00-.818 1.057c-.178.448-.266.966-.266 1.554 0 .91.21 1.64.63 2.191.42.546 1.038.819 1.854.819zm5.129.777v-7.56h.924v1.82l-.182-.238a2.58 2.58 0 01.329-.616 2.14 2.14 0 01.44-.469c.197-.173.425-.303.687-.392.261-.093.525-.147.79-.161.267-.019.51 0 .729.056v.966a2.504 2.504 0 00-.903-.049 1.718 1.718 0 00-.903.392 1.88 1.88 0 00-.567.707 3.01 3.01 0 00-.252.868 6.57 6.57 0 00-.063.903V302h-1.03zm8.107.21c-.737 0-1.377-.163-1.918-.49a3.326 3.326 0 01-1.253-1.379c-.299-.593-.448-1.288-.448-2.086 0-.826.147-1.54.44-2.142a3.28 3.28 0 011.24-1.393c.537-.327 1.169-.49 1.897-.49.747 0 1.383.173 1.91.518.528.341.927.831 1.198 1.47.27.639.394 1.402.37 2.289h-1.05v-.364c-.018-.98-.23-1.72-.636-2.219-.401-.499-.99-.749-1.764-.749-.812 0-1.435.264-1.87.791-.429.527-.643 1.279-.643 2.254 0 .952.214 1.692.644 2.219.434.523 1.047.784 1.84.784.542 0 1.014-.124 1.415-.371.406-.252.726-.614.959-1.085l.959.371a3.428 3.428 0 01-1.323 1.533c-.579.359-1.235.539-1.967.539zm-2.891-3.703v-.861h5.775v.861h-5.775zm10.824-5.502v-1.155h1.029v1.155h-1.029zm0 8.995v-7.56h1.029V302h-1.029zm8.588 0v-3.857c0-.42-.04-.805-.12-1.155a2.658 2.658 0 00-.384-.924 1.763 1.763 0 00-.68-.616c-.275-.145-.61-.217-1.007-.217-.364 0-.686.063-.966.189a1.903 1.903 0 00-.7.546 2.443 2.443 0 00-.427.854 4.105 4.105 0 00-.147 1.148l-.728-.161c0-.775.135-1.426.406-1.953.27-.527.644-.926 1.12-1.197.476-.271 1.022-.406 1.638-.406.452 0 .847.07 1.183.21.34.14.627.329.86.567.239.238.43.511.575.819.144.303.25.628.315.973.065.341.098.681.098 1.022V302h-1.036zm-5.467 0v-7.56h.93v1.862h.106V302h-1.036zm11.4.21c-.76 0-1.404-.17-1.932-.511a3.261 3.261 0 01-1.204-1.407c-.27-.602-.41-1.293-.42-2.072.01-.793.154-1.489.434-2.086a3.202 3.202 0 011.211-1.4c.528-.336 1.167-.504 1.918-.504.766 0 1.43.187 1.995.56.57.373.96.884 1.17 1.533l-1.009.322a2.126 2.126 0 00-.847-1.05 2.338 2.338 0 00-1.316-.378c-.555 0-1.015.128-1.379.385a2.24 2.24 0 00-.812 1.057c-.177.453-.268.973-.273 1.561.01.905.22 1.633.63 2.184.411.546 1.022.819 1.834.819.514 0 .95-.117 1.31-.35.363-.238.639-.583.825-1.036l1.036.308c-.28.672-.69 1.185-1.232 1.54-.54.35-1.187.525-1.939.525zm7.568 0c-.751 0-1.393-.17-1.925-.511a3.327 3.327 0 01-1.225-1.414c-.284-.602-.427-1.293-.427-2.072 0-.793.145-1.489.434-2.086a3.29 3.29 0 011.232-1.393c.537-.336 1.174-.504 1.911-.504.756 0 1.4.17 1.932.511.537.336.945.805 1.225 1.407.285.597.427 1.286.427 2.065 0 .793-.142 1.491-.427 2.093a3.273 3.273 0 01-1.232 1.4c-.536.336-1.178.504-1.925.504zm0-.987c.84 0 1.466-.278 1.876-.833.411-.56.616-1.286.616-2.177 0-.915-.207-1.643-.623-2.184-.41-.541-1.033-.812-1.869-.812-.564 0-1.031.128-1.4.385a2.281 2.281 0 00-.819 1.057c-.177.448-.266.966-.266 1.554 0 .91.21 1.64.63 2.191.42.546 1.039.819 1.855.819zm14.145.777l.006-4.963c0-.583-.163-1.041-.49-1.372-.322-.336-.732-.504-1.231-.504-.285 0-.563.065-.834.196a1.61 1.61 0 00-.671.63c-.173.289-.26.667-.26 1.134l-.609-.175c-.013-.541.092-1.015.316-1.421.228-.406.54-.721.938-.945a2.69 2.69 0 011.358-.343c.76 0 1.37.236 1.826.707.458.467.687 1.099.687 1.897L74.34 302h-1.03zm-9.024 0v-7.56h.924v1.862h.112V302h-1.035zm4.522 0l.008-4.893c0-.602-.161-1.076-.483-1.421-.318-.35-.738-.525-1.26-.525-.523 0-.945.18-1.267.539-.323.355-.484.828-.484 1.421l-.615-.336c0-.485.114-.919.343-1.302a2.44 2.44 0 01.938-.91 2.699 2.699 0 011.35-.336c.481 0 .908.103 1.282.308.378.205.674.504.889.896.214.392.322.868.322 1.428L69.825 302h-1.016zm10.497.21c-.737 0-1.377-.163-1.918-.49a3.325 3.325 0 01-1.253-1.379c-.299-.593-.448-1.288-.448-2.086 0-.826.147-1.54.441-2.142a3.28 3.28 0 011.239-1.393c.537-.327 1.169-.49 1.897-.49.747 0 1.384.173 1.911.518.527.341.926.831 1.197 1.47.27.639.394 1.402.371 2.289h-1.05v-.364c-.019-.98-.231-1.72-.637-2.219-.401-.499-.99-.749-1.764-.749-.812 0-1.435.264-1.869.791-.43.527-.644 1.279-.644 2.254 0 .952.215 1.692.644 2.219.434.523 1.048.784 1.841.784.541 0 1.013-.124 1.414-.371.406-.252.726-.614.959-1.085l.959.371a3.43 3.43 0 01-1.323 1.533c-.579.359-1.234.539-1.967.539zm-2.891-3.703v-.861h5.775v.861h-5.775zm10.824-5.502v-1.155h1.03v1.155h-1.03zm0 8.995v-7.56h1.03V302h-1.03zm8.588 0v-3.857c0-.42-.04-.805-.12-1.155a2.656 2.656 0 00-.384-.924 1.762 1.762 0 00-.68-.616c-.275-.145-.61-.217-1.007-.217-.364 0-.686.063-.966.189a1.904 1.904 0 00-.7.546 2.445 2.445 0 00-.427.854 4.105 4.105 0 00-.147 1.148l-.728-.161c0-.775.135-1.426.406-1.953.27-.527.644-.926 1.12-1.197.476-.271 1.022-.406 1.638-.406.452 0 .847.07 1.183.21.34.14.627.329.86.567.239.238.43.511.575.819.144.303.25.628.315.973.065.341.098.681.098 1.022V302h-1.036zm-5.467 0v-7.56h.93v1.862h.106V302H90.36zm12.844.203c-.672 0-1.248-.187-1.729-.56-.481-.373-.805-.873-.973-1.498l1.029-.245c.084.369.278.681.581.938.308.252.67.378 1.085.378.261 0 .525-.063.791-.189a1.37 1.37 0 00.637-.623c.103-.201.161-.418.175-.651.019-.238.028-.523.028-.854v-6.979h1.036v6.979c0 .28-.002.534-.007.763-.005.224-.03.441-.077.651a2.094 2.094 0 01-.245.623 2.344 2.344 0 01-.98.952c-.406.21-.856.315-1.351.315zm7.663-.014c-.453 0-.849-.07-1.19-.21a2.634 2.634 0 01-.861-.567 3.01 3.01 0 01-.567-.812 4.057 4.057 0 01-.315-.973 5.548 5.548 0 01-.098-1.029v-4.158h1.036v3.857c0 .415.04.8.119 1.155.079.355.205.665.378.931.177.261.404.464.679.609.28.145.618.217 1.015.217.364 0 .684-.063.959-.189.28-.126.513-.306.7-.539.191-.238.336-.525.434-.861a4.15 4.15 0 00.147-1.148l.728.161c0 .775-.135 1.426-.406 1.953a2.82 2.82 0 01-1.12 1.197c-.476.271-1.022.406-1.638.406zm2.541-.189v-1.862h-.105v-5.698h1.029V302h-.924zm8.341 0v-3.857c0-.42-.04-.805-.119-1.155a2.677 2.677 0 00-.385-.924 1.765 1.765 0 00-.679-.616c-.276-.145-.612-.217-1.008-.217-.364 0-.686.063-.966.189a1.895 1.895 0 00-.7.546 2.438 2.438 0 00-.427.854 4.105 4.105 0 00-.147 1.148l-.728-.161c0-.775.135-1.426.406-1.953.27-.527.644-.926 1.12-1.197.476-.271 1.022-.406 1.638-.406.452 0 .847.07 1.183.21.34.14.627.329.861.567.238.238.429.511.574.819.144.303.249.628.315.973.065.341.098.681.098 1.022V302h-1.036zm-5.467 0v-7.56h.931v1.862h.105V302h-1.036zm11.463.21c-.737 0-1.376-.163-1.918-.49a3.332 3.332 0 01-1.253-1.379c-.298-.593-.448-1.288-.448-2.086 0-.826.147-1.54.441-2.142a3.28 3.28 0 011.239-1.393c.537-.327 1.169-.49 1.897-.49.747 0 1.384.173 1.911.518.528.341.927.831 1.197 1.47.271.639.395 1.402.371 2.289h-1.05v-.364c-.018-.98-.231-1.72-.637-2.219-.401-.499-.989-.749-1.764-.749-.812 0-1.435.264-1.869.791-.429.527-.644 1.279-.644 2.254 0 .952.215 1.692.644 2.219.434.523 1.048.784 1.841.784.542 0 1.013-.124 1.414-.371.406-.252.726-.614.959-1.085l.959.371a3.421 3.421 0 01-1.323 1.533c-.578.359-1.234.539-1.967.539zm-2.891-3.703v-.861h5.775v.861h-5.775z" fill="#0A2640"/></g><defs><clipPath id="clip0_53_575"><path fill="#fff" d="M0 0h171v308H0z"/></clipPath></defs></svg>