<svg width="262" height="166" fill="none" xmlns="http://www.w3.org/2000/svg"><g filter="url(#filter0_b_64_969)"><rect x=".041" y=".665" width="261.959" height="165.335" rx="14.132" fill="#fff" fill-opacity=".2"/><rect x="226.041" y="68.533" width="8" height="72" rx="4" transform="rotate(90 226.041 68.533)" fill="#95ABBC"/><rect x="222.041" y="90.665" width="8" height="68" rx="4" transform="rotate(90 222.041 90.665)" fill="#95ABBC"/><rect x="230.041" y="112.797" width="8" height="76" rx="4" transform="rotate(90 230.041 112.797)" fill="#95ABBC"/><g clip-path="url(#clip0_64_969)"><path d="M114.686 94.295c0 22.051-17.832 39.902-39.798 39.902S35.09 116.346 35.09 94.295c0-22.052 17.832-39.902 39.798-39.902s39.798 17.85 39.798 39.902z" stroke="#0A2640" stroke-width="13.393"/><mask id="a" style="mask-type:alpha" maskUnits="userSpaceOnUse" x="0" y="30" width="74" height="122"><path d="M73.405 89.998L55.269 30.84.365 100.573l29.183 50.895 43.857-61.47z" fill="#C4C4C4"/></mask><g mask="url(#a)"><path d="M114.687 94.294c0 22.051-17.832 39.902-39.798 39.902s-39.798-17.851-39.798-39.902c0-22.051 17.832-39.902 39.798-39.902s39.798 17.85 39.798 39.902z" stroke="#0DBBFC" stroke-width="13.393"/></g><mask id="b" style="mask-type:alpha" maskUnits="userSpaceOnUse" x="49" y="25" width="91" height="85"><path d="M79.544 95.182l59.996 14.691-31.705-82.96-58.563-.953 30.272 69.222z" fill="#C4C4C4"/></mask><g mask="url(#b)"><path d="M54.489 128.535c-18.892-11.286-25.093-35.772-13.846-54.694 11.246-18.92 35.678-25.109 54.57-13.823 18.893 11.285 25.093 35.772 13.847 54.693s-35.68 25.109-54.571 13.824z" stroke="#69E6A6" stroke-width="13.393"/></g></g></g><defs><clipPath id="clip0_64_969"><path fill="#fff" transform="translate(28.305 47.773)" d="M0 0h93.038v93.038H0z"/></clipPath><filter id="filter0_b_64_969" x="-133.086" y="-132.462" width="528.213" height="431.589" filterUnits="userSpaceOnUse" color-interpolation-filters="sRGB"><feFlood flood-opacity="0" result="BackgroundImageFix"/><feGaussianBlur in="BackgroundImage" stdDeviation="66.564"/><feComposite in2="SourceAlpha" operator="in" result="effect1_backgroundBlur_64_969"/><feBlend in="SourceGraphic" in2="effect1_backgroundBlur_64_969" result="shape"/></filter></defs></svg>